<svg width="150" height="150" viewBox="0 0 150 150" fill="none" xmlns="http://www.w3.org/2000/svg">
<path d="M144.287 4.74226H74.0291V75H144.287V4.74226Z" fill="#E7ECED"/>
<path d="M74.0291 144.51V145.258H3.77136V75H74.0291V144.51Z" fill="#E7ECED"/>
<path d="M144.287 145.258H74.0291V144.51V75H144.287V145.258Z" fill="#FFAF16"/>
<path d="M74.0291 4.74226H3.77136V75H74.0291V4.74226Z" fill="#FFAF16"/>
<path d="M2.5 2.5V147.5H147.5V2.5H75H2.5ZM143.015 72.7577H77.2423V6.98454H143.015V72.7577ZM72.7577 6.98454V72.7577H6.98454V6.98454H72.7577ZM6.98454 77.2423H72.7577V143.015H6.98454V77.2423ZM77.2423 143.015V77.2423H143.015V143.015H77.2423Z" fill="black"/>
<path d="M38.3763 61.5464H42.8608V41.366H63.0413V36.8814H42.8608V16.701H38.3763V36.8814H18.1959V41.366H38.3763V61.5464Z" fill="#022026"/>
<path d="M58.6476 96.0187L55.4761 92.8473L40.6185 107.705L25.761 92.8473L22.5895 96.0187L37.4474 110.876L22.5895 125.734L25.761 128.905L40.6185 114.047L55.4761 128.905L58.6476 125.734L43.7897 110.876L58.6476 96.0187Z" fill="#022026"/>
<path d="M131.804 36.8814H86.9587V41.366H131.804V36.8814Z" fill="#022026"/>
<path d="M131.804 117.603H86.9587V122.088H131.804V117.603Z" fill="#022026"/>
<path d="M131.804 96.6752H86.9587V101.16H131.804V96.6752Z" fill="#022026"/>
</svg>
