<svg width="150" height="150" viewBox="0 0 150 150" fill="none" xmlns="http://www.w3.org/2000/svg">
<path d="M114.788 143.875H34.4C31.036 143.875 28.368 140.25 28.6 136.045L31.036 92.98C32.776 64.415 51.684 42.375 74.652 42.375C97.504 42.375 116.528 64.415 118.152 92.98L120.588 136.045C120.82 140.25 118.152 143.875 114.788 143.875Z" fill="#F2BF5E"/>
<g opacity="0.1">
<path opacity="0.1" d="M74.652 42.375C51.8 42.375 32.776 64.415 31.152 92.98L28.6 136.045C28.368 140.25 31.036 143.875 34.4 143.875H46C42.636 143.875 39.968 140.25 40.2 136.045L42.636 92.98C44.144 66.88 54.352 46.29 74.536 42.81C72.68 42.52 76.624 42.375 74.652 42.375Z" fill="black"/>
</g>
<path d="M144.6 6.125C144.6 18.16 136.828 27.875 127.2 27.875H22.8C13.172 27.875 5.39999 18.16 5.39999 6.125" fill="#202C45"/>
<g opacity="0.1">
<path opacity="0.1" d="M17 6.125H5.39999C5.39999 18.16 13.172 27.875 22.8 27.875H34.4C24.772 27.875 17 18.16 17 6.125Z" fill="black"/>
</g>
<path d="M45.652 97.475C45.652 77.465 58.644 61.225 74.652 61.225C90.66 61.225 103.652 77.465 103.652 97.475" fill="#E7ECED"/>
<path d="M74.652 42.375C82.54 42.375 89.964 44.985 96.344 49.625H97.852V27.875H51.452V49.625H52.96C59.34 44.985 66.764 42.375 74.652 42.375Z" fill="#F2BF5E"/>
<path opacity="0.1" d="M51.452 27.875V49.625H52.96C56.092 47.305 59.572 45.565 63.052 44.405V27.875H51.452Z" fill="black"/>
<path d="M86.252 42.375C84.28 42.375 82.308 42.52 80.452 42.81C86.136 43.825 91.588 46.145 96.344 49.625H97.852V44.405C94.14 43.1 90.196 42.375 86.252 42.375Z" fill="#F2E7AC"/>
<path d="M74.652 93.85H63.052C61.428 93.85 60.152 95.445 60.152 97.475C60.152 99.505 61.428 101.1 63.052 101.1H74.652C76.276 101.1 77.552 99.505 77.552 97.475C77.552 95.445 76.16 93.85 74.652 93.85Z" fill="#022026"/>
<path d="M97.04 69.055C91.24 61.95 83.352 57.6 74.652 57.6C65.952 57.6 58.064 61.95 52.264 69.055C52.148 69.055 52.148 69.2 52.032 69.2C52.032 69.2 51.916 69.345 51.916 69.49C46.232 76.74 42.752 86.6 42.752 97.475C42.752 99.505 44.028 101.1 45.652 101.1H51.452C53.076 101.1 54.352 99.505 54.352 97.475C54.352 95.445 53.076 93.85 51.452 93.85H48.668C49.248 87.615 51.22 81.815 54.236 77.175L56.208 79.64C56.788 80.365 57.484 80.655 58.296 80.655C59.108 80.655 59.804 80.365 60.384 79.64C61.544 78.19 61.544 75.87 60.384 74.565L58.412 72.1C62.124 68.33 66.764 65.865 71.752 65.14V68.475C71.752 70.505 73.028 72.1 74.652 72.1C76.276 72.1 77.552 70.505 77.552 68.475V64.995C82.54 65.72 87.18 68.185 90.892 71.955L88.92 74.42C87.76 75.87 87.76 78.19 88.92 79.495C89.5 80.22 90.196 80.51 91.008 80.51C91.82 80.51 92.516 80.22 93.096 79.495L95.068 77.03C98.084 81.67 100.056 87.47 100.636 93.705H97.852C96.228 93.705 94.952 95.3 94.952 97.33C94.952 99.36 96.228 100.955 97.852 100.955H103.652C105.276 100.955 106.552 99.36 106.552 97.33C106.552 86.455 103.072 76.595 97.388 69.345C97.388 69.2 97.272 69.2 97.272 69.055C97.156 69.2 97.04 69.2 97.04 69.055Z" fill="#022026"/>
<path d="M144.6 2.5H5.4C3.776 2.5 2.5 4.095 2.5 6.125C2.5 20.19 11.664 31.5 22.8 31.5H48.552V48.9C37.184 58.615 29.296 74.565 28.252 92.835L25.816 135.9C25.7 138.945 26.512 141.845 28.136 144.02C29.76 146.195 32.08 147.5 34.516 147.5H114.904C117.34 147.5 119.66 146.195 121.284 144.02C122.908 141.845 123.72 138.8 123.604 135.9L121.168 92.835C120.124 74.565 112.236 58.615 100.868 48.9V31.5H127.2C138.452 31.5 147.5 20.045 147.5 6.125C147.5 4.095 146.224 2.5 144.6 2.5ZM115.252 93.27L117.688 136.335C117.688 137.35 117.456 138.365 116.876 139.09C116.296 139.815 115.6 140.25 114.788 140.25H34.4C33.588 140.25 32.776 139.815 32.312 139.09C31.732 138.365 31.5 137.35 31.5 136.335L33.936 93.27C35.444 66.735 53.308 46 74.536 46C95.88 46 113.744 66.735 115.252 93.27ZM54.352 44.695V31.5H94.952V44.695C88.804 40.925 81.844 38.75 74.652 38.75C67.344 38.75 60.5 40.925 54.352 44.695ZM127.2 24.25H97.852H51.452H22.8C15.84 24.25 9.924 18.015 8.648 9.75H141.468C140.076 18.015 134.16 24.25 127.2 24.25Z" fill="#022026"/>
</svg>
