<svg width="150" height="150" viewBox="0 0 150 150" fill="none" xmlns="http://www.w3.org/2000/svg">
<path d="M6.57608 18.8045C5.44508 18.8045 4.52352 17.6891 4.70558 16.4396C5.71413 9.51368 11.0856 4.22631 17.5574 4.22631H26.9776L37.0357 18.8045H6.57608Z" fill="#C4CDDF"/>
<path d="M115.61 132.593V18.4465C115.61 10.5911 109.649 4.22287 102.295 4.22287H18.5837C25.9368 4.22287 31.8979 10.5911 31.8979 18.4465V132.593H115.61Z" fill="#E7ECED"/>
<path d="M145.889 42.8833H79.3178V145.791H145.889V42.8833Z" fill="#202C45"/>
<path d="M136.254 53.1586H88.9361V75.6712H136.254V53.1586Z" fill="#E7ECED"/>
<path d="M99.5211 125.412H88.9361V135.498H99.5211V125.412Z" fill="#F2BF5E"/>
<path d="M136.254 106.652H125.669V135.498H136.254V106.652Z" fill="#F2BF5E"/>
<path d="M117.888 125.412H107.303V135.498H117.888V125.412Z" fill="#F2BF5E"/>
<path d="M99.5211 106.652H88.9361V116.738H99.5211V106.652Z" fill="#F2BF5E"/>
<path d="M117.888 106.652H107.303V116.738H117.888V106.652Z" fill="#F2BF5E"/>
<path d="M99.5211 87.8914H88.9361V97.9773H99.5211V87.8914Z" fill="#F2BF5E"/>
<path d="M136.254 87.8914H125.669V97.9773H136.254V87.8914Z" fill="#F2BF5E"/>
<path d="M117.888 87.8914H107.303V97.9773H117.888V87.8914Z" fill="#F2BF5E"/>
<path d="M115.594 44.5976C114.703 44.5976 113.982 43.8265 113.982 42.8765V19.6822C113.982 12.1057 108.213 5.9423 101.121 5.9423C100.23 5.9423 99.5098 5.17122 99.5098 4.22115C99.5098 3.27108 100.23 2.5 101.121 2.5C109.99 2.5 117.205 10.209 117.205 19.6822V42.8765C117.205 43.8282 116.484 44.5976 115.594 44.5976Z" fill="#022026"/>
<path d="M79.3146 134.452H33.0579C32.1686 134.452 31.4468 133.683 31.4468 132.731V21.4034H4.11111C3.22178 21.4034 2.5 20.6323 2.5 19.6822C2.5 10.2073 9.71617 2.5 18.5837 2.5C27.4513 2.5 34.6674 10.209 34.6674 19.6822V131.01H79.3129C80.2039 131.01 80.9241 131.779 80.9241 132.731C80.9241 133.683 80.2039 134.452 79.3146 134.452ZM5.82372 17.9611H31.3469C30.5527 11.1935 25.1329 5.9423 18.5853 5.9423C12.0378 5.9423 6.618 11.1935 5.82372 17.9611Z" fill="#022026"/>
<path d="M101.121 5.9423H18.5837C17.6944 5.9423 16.9726 5.17122 16.9726 4.22115C16.9726 3.27108 17.6944 2.5 18.5837 2.5H101.119C102.01 2.5 102.73 3.27108 102.73 4.22115C102.73 5.17122 102.012 5.9423 101.121 5.9423Z" fill="#022026"/>
<path d="M145.889 147.5H79.3145C78.4236 147.5 77.7034 146.731 77.7034 145.779V42.8765C77.7034 41.9264 78.4236 41.1553 79.3145 41.1553H145.889C146.78 41.1553 147.5 41.9264 147.5 42.8765V145.779C147.5 146.731 146.78 147.5 145.889 147.5ZM80.9257 144.058H144.278V44.5976H80.9257V144.058Z" fill="#022026"/>
<path d="M136.262 77.389H88.9377C88.0468 77.389 87.3266 76.6196 87.3266 75.6678V53.1603C87.3266 52.2103 88.0468 51.4392 88.9377 51.4392H136.262C137.153 51.4392 137.874 52.2103 137.874 53.1603V75.6678C137.874 76.6179 137.153 77.389 136.262 77.389ZM90.5488 73.9467H134.651V54.8815H90.5488V73.9467Z" fill="#F2BF5E"/>
<path d="M99.5307 137.216H88.9393C88.0484 137.216 87.3282 136.447 87.3282 135.495V125.409C87.3282 124.457 88.0484 123.688 88.9393 123.688H99.5307C100.422 123.688 101.142 124.457 101.142 125.409V135.495C101.142 136.447 100.42 137.216 99.5307 137.216ZM90.5488 133.774H97.918V127.13H90.5488V133.774Z" fill="#022026"/>
<path d="M136.262 137.216H125.671C124.78 137.216 124.06 136.447 124.06 135.495V106.655C124.06 105.704 124.78 104.934 125.671 104.934H136.262C137.153 104.934 137.874 105.704 137.874 106.655V135.497C137.874 136.447 137.153 137.216 136.262 137.216ZM127.282 133.774H134.651V108.377H127.282V133.774Z" fill="#022026"/>
<path d="M117.897 137.216H107.306C106.415 137.216 105.695 136.447 105.695 135.495V125.409C105.695 124.457 106.415 123.688 107.306 123.688H117.897C118.788 123.688 119.509 124.457 119.509 125.409V135.495C119.509 136.447 118.788 137.216 117.897 137.216ZM108.917 133.774H116.286V127.13H108.917V133.774Z" fill="#022026"/>
<path d="M99.5307 118.462H88.9393C88.0484 118.462 87.3282 117.693 87.3282 116.741V106.655C87.3282 105.704 88.0484 104.934 88.9393 104.934H99.5307C100.422 104.934 101.142 105.704 101.142 106.655V116.741C101.142 117.693 100.42 118.462 99.5307 118.462ZM90.5488 115.02H97.918V108.377H90.5488V115.02Z" fill="#022026"/>
<path d="M117.897 118.462H107.306C106.415 118.462 105.695 117.693 105.695 116.741V106.655C105.695 105.704 106.415 104.934 107.306 104.934H117.897C118.788 104.934 119.509 105.704 119.509 106.655V116.741C119.509 117.693 118.788 118.462 117.897 118.462ZM108.917 115.02H116.286V108.377H108.917V115.02Z" fill="#022026"/>
<path d="M99.5307 99.7088H88.9393C88.0484 99.7088 87.3282 98.9395 87.3282 97.9877V87.9C87.3282 86.9482 88.0484 86.1789 88.9393 86.1789H99.5307C100.422 86.1789 101.142 86.9482 101.142 87.9V97.9877C101.142 98.9395 100.42 99.7088 99.5307 99.7088ZM90.5488 96.2665H97.918V89.6212H90.5488V96.2665Z" fill="#022026"/>
<path d="M136.262 99.7088H125.671C124.78 99.7088 124.06 98.9395 124.06 97.9877V87.9C124.06 86.9482 124.78 86.1789 125.671 86.1789H136.262C137.153 86.1789 137.874 86.9482 137.874 87.9V97.9877C137.874 98.9395 137.153 99.7088 136.262 99.7088ZM127.282 96.2665H134.651V89.6212H127.282V96.2665Z" fill="#022026"/>
<path d="M117.897 99.7088H107.306C106.415 99.7088 105.695 98.9395 105.695 97.9877V87.9C105.695 86.9482 106.415 86.1789 107.306 86.1789H117.897C118.788 86.1789 119.509 86.9482 119.509 87.9V97.9877C119.509 98.9395 118.788 99.7088 117.897 99.7088ZM108.917 96.2665H116.286V89.6212H108.917V96.2665Z" fill="#022026"/>
<path d="M103.75 25.4911H44.9012C44.0119 25.4911 43.2901 24.72 43.2901 23.77C43.2901 22.8199 44.0119 22.0488 44.9012 22.0488H103.75C104.641 22.0488 105.361 22.8199 105.361 23.77C105.361 24.72 104.64 25.4911 103.75 25.4911Z" fill="#022026"/>
<path d="M64.0863 43.5666H44.9012C44.0119 43.5666 43.2901 42.7956 43.2901 41.8455C43.2901 40.8954 44.0119 40.1243 44.9012 40.1243H64.0863C64.9757 40.1243 65.6974 40.8954 65.6974 41.8455C65.6974 42.7956 64.9757 43.5666 64.0863 43.5666Z" fill="#022026"/>
<path d="M64.0863 61.6404H44.9012C44.0119 61.6404 43.2901 60.8694 43.2901 59.9193C43.2901 58.9692 44.0119 58.1981 44.9012 58.1981H64.0863C64.9757 58.1981 65.6974 58.9692 65.6974 59.9193C65.6974 60.8694 64.9757 61.6404 64.0863 61.6404Z" fill="#022026"/>
<path d="M64.0863 79.716H44.9012C44.0119 79.716 43.2901 78.9466 43.2901 77.9948C43.2901 77.043 44.0119 76.2737 44.9012 76.2737H64.0863C64.9757 76.2737 65.6974 77.043 65.6974 77.9948C65.6974 78.9466 64.9757 79.716 64.0863 79.716Z" fill="#022026"/>
<path d="M64.0863 97.7897H44.9012C44.0119 97.7897 43.2901 97.0204 43.2901 96.0686C43.2901 95.1168 44.0119 94.3474 44.9012 94.3474H64.0863C64.9757 94.3474 65.6974 95.1168 65.6974 96.0686C65.6974 97.0204 64.9757 97.7897 64.0863 97.7897Z" fill="#022026"/>
<path d="M64.0863 115.865H44.9012C44.0119 115.865 43.2901 115.096 43.2901 114.144C43.2901 113.192 44.0119 112.423 44.9012 112.423H64.0863C64.9757 112.423 65.6974 113.192 65.6974 114.144C65.6974 115.096 64.9757 115.865 64.0863 115.865Z" fill="#022026"/>
</svg>
